<mxfile host="app.diagrams.net" agent="Mozilla/5.0 (Windows NT 10.0; Win64; x64) AppleWebKit/537.36 (KHTML, like Gecko) Chrome/129.0.0.0 Safari/537.36" version="24.7.17">
  <diagram name="Страница — 1" id="ofJLVXObDjjjoe6yFiHF">
    <mxGraphModel dx="1050" dy="530" grid="1" gridSize="10" guides="1" tooltips="1" connect="1" arrows="1" fold="1" page="1" pageScale="1" pageWidth="2339" pageHeight="3300" math="0" shadow="0">
      <root>
        <mxCell id="0" />
        <mxCell id="1" parent="0" />
        <mxCell id="rFBnjqkVd5fNcy-4geaj-2" style="edgeStyle=orthogonalEdgeStyle;rounded=0;orthogonalLoop=1;jettySize=auto;html=1;" parent="1" source="rFBnjqkVd5fNcy-4geaj-1" target="rFBnjqkVd5fNcy-4geaj-3" edge="1">
          <mxGeometry relative="1" as="geometry">
            <mxPoint x="477.5" y="120" as="targetPoint" />
          </mxGeometry>
        </mxCell>
        <mxCell id="rFBnjqkVd5fNcy-4geaj-1" value="start" style="ellipse;whiteSpace=wrap;html=1;" parent="1" vertex="1">
          <mxGeometry x="432.5" y="50" width="90" height="50" as="geometry" />
        </mxCell>
        <mxCell id="rFBnjqkVd5fNcy-4geaj-4" style="edgeStyle=orthogonalEdgeStyle;rounded=0;orthogonalLoop=1;jettySize=auto;html=1;" parent="1" source="rFBnjqkVd5fNcy-4geaj-3" target="rFBnjqkVd5fNcy-4geaj-5" edge="1">
          <mxGeometry relative="1" as="geometry">
            <mxPoint x="477.5" y="200" as="targetPoint" />
          </mxGeometry>
        </mxCell>
        <mxCell id="rFBnjqkVd5fNcy-4geaj-3" value="int x&lt;div&gt;int counter&lt;/div&gt;" style="rounded=0;whiteSpace=wrap;html=1;" parent="1" vertex="1">
          <mxGeometry x="430" y="130" width="95" height="40" as="geometry" />
        </mxCell>
        <mxCell id="rFBnjqkVd5fNcy-4geaj-6" style="edgeStyle=orthogonalEdgeStyle;rounded=0;orthogonalLoop=1;jettySize=auto;html=1;" parent="1" source="rFBnjqkVd5fNcy-4geaj-5" target="rFBnjqkVd5fNcy-4geaj-7" edge="1">
          <mxGeometry relative="1" as="geometry">
            <mxPoint x="477.5" y="270" as="targetPoint" />
          </mxGeometry>
        </mxCell>
        <mxCell id="-cck9i20TCeEK1xgqMLO-11" value="" style="edgeStyle=orthogonalEdgeStyle;rounded=0;orthogonalLoop=1;jettySize=auto;html=1;" edge="1" parent="1" source="rFBnjqkVd5fNcy-4geaj-5" target="rFBnjqkVd5fNcy-4geaj-7">
          <mxGeometry relative="1" as="geometry" />
        </mxCell>
        <mxCell id="-cck9i20TCeEK1xgqMLO-12" value="" style="edgeStyle=orthogonalEdgeStyle;rounded=0;orthogonalLoop=1;jettySize=auto;html=1;" edge="1" parent="1" source="rFBnjqkVd5fNcy-4geaj-5" target="rFBnjqkVd5fNcy-4geaj-7">
          <mxGeometry relative="1" as="geometry" />
        </mxCell>
        <mxCell id="rFBnjqkVd5fNcy-4geaj-5" value="cin&amp;gt;&amp;gt;x" style="shape=parallelogram;perimeter=parallelogramPerimeter;whiteSpace=wrap;html=1;fixedSize=1;" parent="1" vertex="1">
          <mxGeometry x="420" y="200" width="115" height="40" as="geometry" />
        </mxCell>
        <mxCell id="rFBnjqkVd5fNcy-4geaj-9" value="" style="edgeStyle=orthogonalEdgeStyle;rounded=0;orthogonalLoop=1;jettySize=auto;html=1;" parent="1" source="rFBnjqkVd5fNcy-4geaj-7" target="rFBnjqkVd5fNcy-4geaj-8" edge="1">
          <mxGeometry relative="1" as="geometry" />
        </mxCell>
        <mxCell id="rFBnjqkVd5fNcy-4geaj-23" value="True" style="edgeLabel;html=1;align=center;verticalAlign=middle;resizable=0;points=[];" parent="rFBnjqkVd5fNcy-4geaj-9" vertex="1" connectable="0">
          <mxGeometry x="-0.61" y="-1" relative="1" as="geometry">
            <mxPoint as="offset" />
          </mxGeometry>
        </mxCell>
        <mxCell id="rFBnjqkVd5fNcy-4geaj-24" style="edgeStyle=orthogonalEdgeStyle;rounded=0;orthogonalLoop=1;jettySize=auto;html=1;" parent="1" source="rFBnjqkVd5fNcy-4geaj-7" target="rFBnjqkVd5fNcy-4geaj-26" edge="1">
          <mxGeometry relative="1" as="geometry">
            <mxPoint x="400" y="340" as="targetPoint" />
          </mxGeometry>
        </mxCell>
        <mxCell id="rFBnjqkVd5fNcy-4geaj-25" value="False" style="edgeLabel;html=1;align=center;verticalAlign=middle;resizable=0;points=[];" parent="rFBnjqkVd5fNcy-4geaj-24" vertex="1" connectable="0">
          <mxGeometry x="-0.5439" y="2" relative="1" as="geometry">
            <mxPoint as="offset" />
          </mxGeometry>
        </mxCell>
        <mxCell id="rFBnjqkVd5fNcy-4geaj-7" value="x&amp;gt;0" style="rhombus;whiteSpace=wrap;html=1;" parent="1" vertex="1">
          <mxGeometry x="437.5" y="270" width="80" height="50" as="geometry" />
        </mxCell>
        <mxCell id="rFBnjqkVd5fNcy-4geaj-11" value="" style="edgeStyle=orthogonalEdgeStyle;rounded=0;orthogonalLoop=1;jettySize=auto;html=1;" parent="1" source="rFBnjqkVd5fNcy-4geaj-8" target="rFBnjqkVd5fNcy-4geaj-10" edge="1">
          <mxGeometry relative="1" as="geometry" />
        </mxCell>
        <mxCell id="rFBnjqkVd5fNcy-4geaj-8" value="x % 10" style="whiteSpace=wrap;html=1;" parent="1" vertex="1">
          <mxGeometry x="550" y="280" width="105" height="30" as="geometry" />
        </mxCell>
        <mxCell id="rFBnjqkVd5fNcy-4geaj-14" value="" style="edgeStyle=orthogonalEdgeStyle;rounded=0;orthogonalLoop=1;jettySize=auto;html=1;" parent="1" source="rFBnjqkVd5fNcy-4geaj-10" target="rFBnjqkVd5fNcy-4geaj-13" edge="1">
          <mxGeometry relative="1" as="geometry" />
        </mxCell>
        <mxCell id="-cck9i20TCeEK1xgqMLO-5" value="False" style="edgeLabel;html=1;align=center;verticalAlign=middle;resizable=0;points=[];" vertex="1" connectable="0" parent="rFBnjqkVd5fNcy-4geaj-14">
          <mxGeometry x="0.6554" y="-1" relative="1" as="geometry">
            <mxPoint as="offset" />
          </mxGeometry>
        </mxCell>
        <mxCell id="-cck9i20TCeEK1xgqMLO-3" style="edgeStyle=orthogonalEdgeStyle;rounded=0;orthogonalLoop=1;jettySize=auto;html=1;entryX=0;entryY=0.5;entryDx=0;entryDy=0;" edge="1" parent="1" source="rFBnjqkVd5fNcy-4geaj-10" target="rFBnjqkVd5fNcy-4geaj-15">
          <mxGeometry relative="1" as="geometry" />
        </mxCell>
        <mxCell id="-cck9i20TCeEK1xgqMLO-4" value="True" style="edgeLabel;html=1;align=center;verticalAlign=middle;resizable=0;points=[];" vertex="1" connectable="0" parent="-cck9i20TCeEK1xgqMLO-3">
          <mxGeometry x="-0.7445" y="1" relative="1" as="geometry">
            <mxPoint as="offset" />
          </mxGeometry>
        </mxCell>
        <mxCell id="rFBnjqkVd5fNcy-4geaj-10" value="case 4" style="rhombus;whiteSpace=wrap;html=1;" parent="1" vertex="1">
          <mxGeometry x="560" y="325" width="85" height="50" as="geometry" />
        </mxCell>
        <mxCell id="rFBnjqkVd5fNcy-4geaj-16" value="" style="edgeStyle=orthogonalEdgeStyle;rounded=0;orthogonalLoop=1;jettySize=auto;html=1;" parent="1" source="rFBnjqkVd5fNcy-4geaj-13" target="rFBnjqkVd5fNcy-4geaj-15" edge="1">
          <mxGeometry relative="1" as="geometry" />
        </mxCell>
        <mxCell id="-cck9i20TCeEK1xgqMLO-6" value="True" style="edgeLabel;html=1;align=center;verticalAlign=middle;resizable=0;points=[];" vertex="1" connectable="0" parent="rFBnjqkVd5fNcy-4geaj-16">
          <mxGeometry x="-0.6945" relative="1" as="geometry">
            <mxPoint as="offset" />
          </mxGeometry>
        </mxCell>
        <mxCell id="rFBnjqkVd5fNcy-4geaj-21" style="edgeStyle=orthogonalEdgeStyle;rounded=0;orthogonalLoop=1;jettySize=auto;html=1;exitX=0.5;exitY=1;exitDx=0;exitDy=0;" parent="1" source="rFBnjqkVd5fNcy-4geaj-13" edge="1">
          <mxGeometry relative="1" as="geometry">
            <mxPoint x="603" y="430" as="targetPoint" />
          </mxGeometry>
        </mxCell>
        <mxCell id="-cck9i20TCeEK1xgqMLO-7" style="edgeStyle=orthogonalEdgeStyle;rounded=0;orthogonalLoop=1;jettySize=auto;html=1;exitX=0.5;exitY=1;exitDx=0;exitDy=0;entryX=0.5;entryY=0;entryDx=0;entryDy=0;" edge="1" parent="1" source="rFBnjqkVd5fNcy-4geaj-13" target="rFBnjqkVd5fNcy-4geaj-19">
          <mxGeometry relative="1" as="geometry" />
        </mxCell>
        <mxCell id="-cck9i20TCeEK1xgqMLO-8" value="False" style="edgeLabel;html=1;align=center;verticalAlign=middle;resizable=0;points=[];" vertex="1" connectable="0" parent="-cck9i20TCeEK1xgqMLO-7">
          <mxGeometry x="-0.7127" y="-2" relative="1" as="geometry">
            <mxPoint as="offset" />
          </mxGeometry>
        </mxCell>
        <mxCell id="rFBnjqkVd5fNcy-4geaj-13" value="case 7" style="rhombus;whiteSpace=wrap;html=1;" parent="1" vertex="1">
          <mxGeometry x="560" y="390" width="85" height="50" as="geometry" />
        </mxCell>
        <mxCell id="rFBnjqkVd5fNcy-4geaj-18" value="" style="edgeStyle=orthogonalEdgeStyle;rounded=0;orthogonalLoop=1;jettySize=auto;html=1;" parent="1" source="rFBnjqkVd5fNcy-4geaj-15" target="rFBnjqkVd5fNcy-4geaj-17" edge="1">
          <mxGeometry relative="1" as="geometry" />
        </mxCell>
        <mxCell id="rFBnjqkVd5fNcy-4geaj-15" value="counter++;" style="whiteSpace=wrap;html=1;" parent="1" vertex="1">
          <mxGeometry x="725" y="375" width="75" height="30" as="geometry" />
        </mxCell>
        <mxCell id="-cck9i20TCeEK1xgqMLO-18" style="edgeStyle=orthogonalEdgeStyle;rounded=0;orthogonalLoop=1;jettySize=auto;html=1;entryX=1;entryY=0.5;entryDx=0;entryDy=0;" edge="1" parent="1" source="rFBnjqkVd5fNcy-4geaj-17" target="rFBnjqkVd5fNcy-4geaj-19">
          <mxGeometry relative="1" as="geometry">
            <Array as="points">
              <mxPoint x="760" y="540" />
            </Array>
          </mxGeometry>
        </mxCell>
        <mxCell id="rFBnjqkVd5fNcy-4geaj-17" value="break;" style="whiteSpace=wrap;html=1;" parent="1" vertex="1">
          <mxGeometry x="720" y="460" width="85" height="40" as="geometry" />
        </mxCell>
        <mxCell id="-cck9i20TCeEK1xgqMLO-9" style="edgeStyle=orthogonalEdgeStyle;rounded=0;orthogonalLoop=1;jettySize=auto;html=1;exitX=0.5;exitY=1;exitDx=0;exitDy=0;endArrow=none;endFill=0;" edge="1" parent="1" source="rFBnjqkVd5fNcy-4geaj-19">
          <mxGeometry relative="1" as="geometry">
            <mxPoint x="860" y="250" as="targetPoint" />
          </mxGeometry>
        </mxCell>
        <mxCell id="rFBnjqkVd5fNcy-4geaj-19" value="&amp;nbsp;x /= 10;" style="whiteSpace=wrap;html=1;" parent="1" vertex="1">
          <mxGeometry x="630" y="520" width="85" height="40" as="geometry" />
        </mxCell>
        <mxCell id="-cck9i20TCeEK1xgqMLO-15" style="edgeStyle=orthogonalEdgeStyle;rounded=0;orthogonalLoop=1;jettySize=auto;html=1;" edge="1" parent="1" source="rFBnjqkVd5fNcy-4geaj-26" target="-cck9i20TCeEK1xgqMLO-16">
          <mxGeometry relative="1" as="geometry">
            <mxPoint x="376.25" y="410" as="targetPoint" />
          </mxGeometry>
        </mxCell>
        <mxCell id="rFBnjqkVd5fNcy-4geaj-26" value="cout &amp;lt;&amp;lt; counter;" style="shape=parallelogram;perimeter=parallelogramPerimeter;whiteSpace=wrap;html=1;fixedSize=1;" parent="1" vertex="1">
          <mxGeometry x="320" y="325" width="112.5" height="45" as="geometry" />
        </mxCell>
        <mxCell id="-cck9i20TCeEK1xgqMLO-10" value="" style="endArrow=none;html=1;rounded=0;endFill=0;" edge="1" parent="1">
          <mxGeometry width="50" height="50" relative="1" as="geometry">
            <mxPoint x="858" y="250" as="sourcePoint" />
            <mxPoint x="478" y="250" as="targetPoint" />
          </mxGeometry>
        </mxCell>
        <mxCell id="-cck9i20TCeEK1xgqMLO-16" value="End" style="ellipse;whiteSpace=wrap;html=1;" vertex="1" parent="1">
          <mxGeometry x="333.75" y="410" width="86.25" height="50" as="geometry" />
        </mxCell>
      </root>
    </mxGraphModel>
  </diagram>
</mxfile>
